# xmcd
#
# Track frame offsets: 
#        150
#        21095
#        45085
#        60387
#        79179
#        96010
#        111242
#        132785
#        155577
#        172025
#        194359
#
# Disc length: 2740 seconds
#
# Revision: 6
# Processed by: cddbd v1.5.2PL0 Copyright (c) Steve Scherf et al.
# Submitted via: ExactAudioCopy v1.3
#
DISCID=840ab20b
DTITLE=Sister Hazel - Sister Hazel
DYEAR=1994
DGENRE=Rock
TTITLE0=Feel It
TTITLE1=Sometimes
TTITLE2=All For You (Acoustic Version)
TTITLE3=Will Not Follow
TTITLE4=One Nation
TTITLE5=Used to Run
TTITLE6=Little Things
TTITLE7=Space Between Us
TTITLE8=Don't Think It's Funny
TTITLE9=Running Through the Fields (For Jeffrey)
TTITLE10=Bring It On Home
EXTD=
EXTT0=
EXTT1=
EXTT2=
EXTT3=
EXTT4=
EXTT5=
EXTT6=
EXTT7=
EXTT8=
EXTT9=
EXTT10=
PLAYORDER=
